<?xml version="1.0" encoding="utf-8"?>
<!-- Generator: Adobe Illustrator 27.0.1, SVG Export Plug-In . SVG Version: 6.00 Build 0)  -->
<svg version="1.1" id="레이어_1" xmlns="http://www.w3.org/2000/svg" xmlns:xlink="http://www.w3.org/1999/xlink" x="0px"
	 y="0px" viewBox="0 0 10 10" style="enable-background:new 0 0 10 10;" xml:space="preserve">
<style type="text/css">
	.st0{fill:#FFC0CB;}
	.st1{fill:#FDD5DC;}
	.st2{fill:none;stroke:#FDD5DC;stroke-linecap:round;stroke-linejoin:round;stroke-miterlimit:10;}
</style>
<path class="st0" d="M18.9-25.4c-1,0-2,0.3-2.8,0.9c-4.9,3.6-1.9,8.8,1.3,12c1.3,1.3,4.5,4.1,5.8,5.2c0.2,0.1,0.4,0.1,0.6,0
	c1.3-1.1,4.4-3.8,5.8-5.2c3.1-3.1,5.9-7.8,2-11.5c-1-1-2.4-1.6-3.8-1.5c-1.8,0.1-3.4,1.2-4.3,2.6C22.6-24.4,21.1-25.4,18.9-25.4z"/>
<g>
	<path class="st1" d="M-15.1-0.3l1.1,1.5h-1.3L-16,0.3c-0.5,0.2-1,0.3-1.5,0.3c-2.2,0-3.8-1.7-3.8-4.4c0-2.7,1.6-4.4,3.8-4.4
		c2.2,0,3.8,1.6,3.8,4.4C-13.7-2.2-14.2-1-15.1-0.3z M-16.7-2.3l0.8,1.1c0.6-0.5,0.9-1.4,0.9-2.5c0-2.1-1.1-3.2-2.5-3.2
		c-1.5,0-2.6,1.1-2.6,3.2s1.1,3.2,2.6,3.2c0.3,0,0.5,0,0.8-0.1l-1.2-1.6H-16.7z"/>
</g>
<g>
	<path class="st1" d="M-1.7,31.4L0,33.7h-2l-1.1-1.4c-0.7,0.3-1.5,0.4-2.3,0.4c-3.3,0-5.7-2.5-5.7-6.5c0-4.1,2.4-6.5,5.7-6.5
		c3.3,0,5.7,2.5,5.7,6.5C0.4,28.5-0.4,30.3-1.7,31.4z M-4.1,28.4l1.2,1.6c0.8-0.8,1.4-2.1,1.4-3.8c0-3.1-1.6-4.8-3.8-4.8
		c-2.2,0-3.8,1.7-3.8,4.8s1.6,4.8,3.8,4.8c0.4,0,0.8-0.1,1.1-0.2L-6,28.4H-4.1z"/>
</g>
<text transform="matrix(1 0 0 1 -41.3893 10.0543)" style="font-family:'Pretendard-Medium-KSCpc-EUC-H'; font-size:12px;">Q</text>
<g>
	<path class="st1" d="M-28.3,18.6l3-8.5h1.5l3.1,8.5h-1.4l-0.8-2.2h-3.3l-0.8,2.2H-28.3z M-23.3,15.3l-1.3-3.6h-0.1l-1.2,3.6H-23.3z
		"/>
</g>
<g>
	<path class="st1" d="M-18.6,15.4L-14,2.7h2.2l4.6,12.7h-2.1l-1.2-3.4h-5l-1.2,3.4H-18.6z M-11,10.4L-12.9,5h-0.1l-1.9,5.4H-11z"/>
</g>
<text transform="matrix(1 0 0 1 -52.0477 13.2779)" style="font-family:'Pretendard-Medium-KSCpc-EUC-H'; font-size:12px;">A</text>
<path class="st1" d="M18.6,25.7h-3c-0.8,0-1.5-0.7-1.5-1.5v0c0-0.8,0.7-1.5,1.5-1.5h3c0.8,0,1.5,0.7,1.5,1.5v0
	C20.1,25,19.4,25.7,18.6,25.7z"/>
<circle class="st1" cx="5" cy="5" r="1.5"/>
<g>
	<line class="st2" x1="20.7" y1="29.9" x2="19.2" y2="31.4"/>
	<line class="st2" x1="19.2" y1="31.4" x2="19.2" y2="31.4"/>
	<line class="st2" x1="19.2" y1="31.4" x2="20.7" y2="32.9"/>
	<line class="st2" x1="19.2" y1="31.4" x2="19.2" y2="31.4"/>
</g>
<g>
	<line class="st2" x1="26.1" y1="29.9" x2="27.6" y2="31.4"/>
	<line class="st2" x1="27.6" y1="31.4" x2="27.6" y2="31.4"/>
	<line class="st2" x1="27.6" y1="31.4" x2="26.1" y2="32.9"/>
	<line class="st2" x1="27.6" y1="31.4" x2="27.6" y2="31.4"/>
</g>
</svg>
