<?xml version="1.0" encoding="utf-8"?>
<!-- Generator: Adobe Illustrator 25.0.1, SVG Export Plug-In . SVG Version: 6.00 Build 0)  -->
<svg version="1.1" id="Layer_1" xmlns="http://www.w3.org/2000/svg" xmlns:xlink="http://www.w3.org/1999/xlink" x="0px" y="0px"
	 viewBox="0 0 238.7 37.15" style="enable-background:new 0 0 238.7 37.15;" xml:space="preserve">
<style type="text/css">
	.st0{fill:#FFFFFF;}
	.st1{fill:#DF202D;}
	.st2{fill:#41B64A;}
	.st3{fill:#532B72;}
	.st4{fill:#532B73;}
	.st5{fill:#DD2B31;}
	.st6{fill:#3EACDB;}
	.st7{fill:#E74E25;}
	.st8{fill:#F9C016;}
	.st9{fill:#8A5125;}
	.st10{fill:#80BD42;}
	.st11{fill:#241A17;}
</style>
<g>
	<path class="st0" d="M-384.54-86.59c0,0.31,0,0.5,0,0.7c0,20.92,0.02,41.85-0.03,62.77c0,1.41,0.26,2.5,1.42,3.34
		c0.22,0.16,0.4,0.27,0.68,0.27c27.86-0.01,55.71-0.01,83.57,0c0.28,0,0.48-0.07,0.68-0.27c14.3-14.31,28.6-28.61,42.91-42.9
		c0.26-0.26,0.24-0.38-0.01-0.63c-14.29-14.28-28.58-28.58-42.86-42.87c-0.25-0.25-0.5-0.34-0.85-0.34
		c-15.65,0.01-31.29,0.01-46.94,0c-0.41,0-0.7,0.09-0.96,0.41c-0.3,0.36-0.64,0.69-0.99,1c-0.24,0.21-0.32,0.43-0.32,0.75
		c0.01,2.95,0.08,5.91-0.02,8.86c-0.05,1.34,0.24,2.37,1.33,3.18c0.3,0.22,0.54,0.38,0.93,0.38c13.65-0.01,27.3-0.01,40.96-0.01
		c0.32,0,0.57,0.06,0.81,0.31c9.42,9.43,18.84,18.86,28.28,28.28c0.31,0.3,0.3,0.45,0,0.74c-4.73,4.7-9.44,9.41-14.16,14.12
		c-4.62,4.62-9.25,9.24-13.85,13.87c-0.42,0.42-0.82,0.61-1.42,0.6c-21.32-0.02-42.64-0.01-63.97-0.02c-0.75,0-0.65,0.1-0.65-0.63
		c0-22.71,0-45.42,0-68.13c0-0.66,0.17-1.41-0.07-1.97c-0.25-0.58-0.91-0.99-1.37-1.48c-0.18-0.19-0.37-0.27-0.63-0.27
		c-3.44,0.01-6.87,0.01-10.31,0c-0.26,0-0.46,0.07-0.66,0.23c-0.84,0.67-1.68,1.33-2.52,1.99c-6.8,5.33-13.59,10.65-20.4,15.97
		c-0.26,0.21-0.38,0.42-0.38,0.77c0.02,3.15,0.01,6.29,0,9.44c0,0.38,0.1,0.49,0.48,0.49c3.16-0.02,6.32-0.01,9.49,0
		c0.28,0,0.49-0.08,0.71-0.25c2.51-1.97,5.03-3.93,7.55-5.89C-386.98-84.69-385.8-85.6-384.54-86.59z M-435.42-86.57
		c0,0.28,0,0.45,0,0.62c0,20.92,0,41.84,0,62.77c0,0.66-0.17,1.4,0.07,1.97c0.24,0.57,0.9,0.95,1.35,1.43
		c0.2,0.21,0.4,0.27,0.68,0.27c2.98-0.01,5.97-0.07,8.95,0.03c1.31,0.04,2.31-0.24,3.1-1.3c0.22-0.3,0.38-0.54,0.38-0.93
		c-0.01-27.05-0.01-54.1-0.01-81.16c0-0.65,0.16-1.37-0.07-1.92c-0.23-0.55-0.87-0.93-1.31-1.41c-0.22-0.24-0.45-0.31-0.76-0.31
		c-3.37,0.01-6.74,0.01-10.12,0c-0.35,0-0.61,0.1-0.88,0.31c-3.4,2.68-6.8,5.34-10.21,8.01c-4.22,3.31-8.44,6.62-12.67,9.92
		c-0.24,0.19-0.34,0.38-0.34,0.69c0.01,3.16,0.01,6.33,0,9.49c0,0.35,0.07,0.47,0.45,0.47c3.19-0.02,6.39-0.01,9.58-0.01
		c0.24,0,0.43-0.06,0.62-0.21c3.11-2.44,6.23-4.87,9.35-7.3C-436.68-85.6-436.09-86.05-435.42-86.57z"/>
	<path class="st1" d="M-384.54-86.59c-1.26,0.98-2.43,1.89-3.61,2.81c-2.52,1.96-5.03,3.92-7.55,5.89
		c-0.22,0.17-0.43,0.25-0.71,0.25c-3.16-0.01-6.32-0.01-9.49,0c-0.39,0-0.48-0.11-0.48-0.49c0.01-3.15,0.02-6.29,0-9.44
		c0-0.35,0.12-0.56,0.38-0.77c6.8-5.32,13.6-10.65,20.4-15.97c0.84-0.66,1.68-1.32,2.52-1.99c0.2-0.16,0.4-0.23,0.66-0.23
		c3.44,0.01,6.87,0.01,10.31,0c0.27,0,0.45,0.08,0.63,0.27c0.46,0.5,1.12,0.9,1.37,1.48c0.24,0.57,0.07,1.31,0.07,1.97
		c0,22.71,0,45.42,0,68.13c0,0.73-0.1,0.63,0.65,0.63c21.32,0,42.64,0,63.97,0.02c0.61,0,1.01-0.19,1.42-0.6
		c4.61-4.64,9.23-9.25,13.85-13.87c4.71-4.71,9.43-9.42,14.16-14.12c0.3-0.3,0.31-0.44,0-0.74c-9.43-9.42-18.86-18.85-28.28-28.28
		c-0.24-0.25-0.49-0.31-0.81-0.31c-13.65,0.01-27.3,0-40.96,0.01c-0.39,0-0.63-0.16-0.93-0.38c-1.09-0.81-1.38-1.84-1.33-3.18
		c0.1-2.95,0.04-5.9,0.02-8.86c0-0.32,0.08-0.54,0.32-0.75c0.35-0.31,0.7-0.64,0.99-1c0.26-0.32,0.55-0.41,0.96-0.41
		c15.65,0.01,31.29,0.01,46.94,0c0.35,0,0.6,0.09,0.85,0.34c14.28,14.3,28.57,28.59,42.86,42.87c0.25,0.25,0.27,0.36,0.01,0.63
		c-14.31,14.29-28.61,28.59-42.91,42.9c-0.2,0.2-0.4,0.27-0.68,0.27c-27.86-0.01-55.71-0.01-83.57,0c-0.28,0-0.46-0.11-0.68-0.27
		c-1.15-0.84-1.42-1.93-1.42-3.34c0.05-20.92,0.03-41.85,0.03-62.77C-384.54-86.08-384.54-86.28-384.54-86.59z"/>
	<path class="st1" d="M-435.42-86.57c-0.67,0.52-1.25,0.96-1.83,1.42c-3.12,2.43-6.23,4.86-9.35,7.3c-0.19,0.15-0.38,0.21-0.62,0.21
		c-3.19-0.01-6.39-0.01-9.58,0.01c-0.38,0-0.45-0.12-0.45-0.47c0.01-3.16,0.01-6.33,0-9.49c0-0.31,0.1-0.5,0.34-0.69
		c4.23-3.3,8.45-6.61,12.67-9.92c3.4-2.67,6.81-5.33,10.21-8.01c0.27-0.21,0.53-0.32,0.88-0.31c3.37,0.01,6.74,0.01,10.12,0
		c0.31,0,0.55,0.07,0.76,0.31c0.44,0.48,1.08,0.86,1.31,1.41c0.23,0.56,0.07,1.28,0.07,1.92c0,27.05,0,54.1,0.01,81.16
		c0,0.39-0.16,0.63-0.38,0.93c-0.79,1.06-1.79,1.35-3.1,1.3c-2.98-0.1-5.97-0.03-8.95-0.03c-0.28,0-0.48-0.06-0.68-0.27
		c-0.45-0.48-1.11-0.87-1.35-1.43c-0.24-0.57-0.07-1.31-0.07-1.97c0-20.92,0-41.84,0-62.77C-435.42-86.12-435.42-86.29-435.42-86.57
		z"/>
</g>
<g>
	<path class="st2" d="M-126.96-91.03c0-19.45,0.03-38.91-0.04-58.36c-0.01-2.03,0.25-2.83,2.64-2.82
		c39.15,0.09,78.3,0.08,117.46,0.02c2,0,2.66,0.4,2.66,2.54c-0.07,39.07-0.07,78.15,0,117.22c0,2.14-0.64,2.55-2.65,2.55
		c-39.15-0.06-78.3-0.07-117.46,0.02c-2.37,0.01-2.66-0.77-2.65-2.81C-126.93-52.12-126.96-71.58-126.96-91.03z M-55.59-90.79
		c-1.19-0.58-1.51-1.47-2-2.18c-5.55-8.09-11.09-16.17-16.57-24.3c-0.82-1.22-1.67-1.82-3.22-1.79c-5.58,0.09-11.16,0.09-16.74,0
		c-1.6-0.02-2.12,0.39-2.11,2.08c0.06,17.29,0.06,34.57,0.01,51.86c0,1.59,0.37,2.16,2.06,2.13c5.49-0.1,10.99-0.1,16.49,0
		c1.67,0.03,2.09-0.51,2.07-2.13c-0.08-7.98-0.05-15.96-0.02-23.93c0-0.67-0.35-1.47,0.46-2.17c0.55,0.77,1.08,1.49,1.59,2.23
		c5.53,8.1,11.08,16.18,16.56,24.31c0.77,1.14,1.56,1.72,3.02,1.7c5.66-0.08,11.32-0.08,16.99,0c1.53,0.02,1.97-0.42,1.97-1.96
		c-0.05-17.37-0.05-34.74,0-52.11c0-1.5-0.36-2.02-1.94-1.99c-5.49,0.09-10.99,0.11-16.49-0.01c-1.84-0.04-2.18,0.64-2.16,2.3
		c0.08,7.81,0.03,15.62,0.03,23.43C-55.59-92.56-55.59-91.77-55.59-90.79z"/>
</g>
<g>
	<path class="st3" d="M229.63-102.38c0.01,1.47-0.25,2.66-0.7,3.82c-0.6,1.55-1.16,3.11-1.79,4.65c-0.78,1.92-1.46,3.88-2.29,5.78
		c-0.41,0.94-0.72,1.92-1.08,2.88c-0.42,1.1-0.87,2.2-1.29,3.3c-0.37,0.99-0.79,1.96-1.14,2.96c-0.38,1.1-0.85,2.17-1.27,3.25
		c-0.07,0.17-0.16,0.34-0.19,0.52c-0.02,0.16-0.24,0.35-0.01,0.5c0.19,0.13,0.35-0.03,0.51-0.11c1.28-0.67,2.61-1.23,4.01-1.6
		c1.96-0.52,3.94-0.69,5.95-0.34c2.51,0.44,4.82,2.46,5.15,4.95c0.2,1.5-0.06,2.88-1.06,4.07c-0.22,0.26-0.47,0.46-0.83,0.39
		c-0.39-0.07-0.56-0.37-0.63-0.72c-0.28-1.32-1.12-2.29-2.12-3.09c-1.22-0.98-2.68-1.41-4.23-1.64c-1.6-0.24-3.11,0.08-4.59,0.51
		c-1.18,0.34-2.31,0.89-3.38,1.54c-0.64,0.39-0.92,0.97-1.17,1.6c-0.63,1.59-1.23,3.18-1.84,4.78c-0.56,1.46-1.1,2.93-1.68,4.39
		c-0.47,1.17-0.98,2.32-1.46,3.48c-0.45,1.08-0.88,2.17-1.37,3.23c-0.57,1.24-1.23,2.44-1.8,3.68c-0.77,1.67-1.77,3.2-2.68,4.78
		c-0.98,1.69-2.16,3.25-3.45,4.73c-0.91,1.03-1.88,1.98-3,2.78c-2,1.44-4.2,2.33-6.7,2.19c-1.96-0.11-3.8-0.6-5.25-2.07
		c-0.86-0.87-1.37-1.92-1.61-3.1c-0.28-1.37-0.12-2.74,0.03-4.1c0.09-0.81,0.38-1.62,0.66-2.39c0.46-1.24,1.03-2.44,1.73-3.56
		c1.35-2.17,2.96-4.14,4.79-5.94c1.23-1.21,2.47-2.4,3.73-3.58c1.39-1.3,2.8-2.59,4.25-3.83c1.54-1.32,3.14-2.57,4.72-3.85
		c0.6-0.48,1.22-0.94,1.81-1.43c0.27-0.22,0.43-0.53,0.54-0.85c0.36-0.96,0.7-1.94,1.04-2.9c0.29-0.81,0.59-1.62,0.89-2.42
		c0.11-0.29,0.29-0.72,0.05-0.84c-0.27-0.14-0.46,0.29-0.66,0.52c-0.61,0.69-1.22,1.39-1.92,2c-0.8,0.7-1.61,1.38-2.51,1.95
		c-1.84,1.17-3.83,1.94-6.01,2.03c-2.03,0.08-4.01-0.15-5.9-1.03c-2.21-1.03-3.71-2.61-4.35-4.98c-0.12-0.46-0.23-0.93-0.35-1.39
		c-0.04-0.14-0.05-0.32-0.24-0.36c-0.18-0.03-0.27,0.1-0.37,0.22c-0.8,0.94-1.69,1.78-2.6,2.61c-1.48,1.35-3.11,2.46-4.9,3.33
		c-2.51,1.23-5.15,1.86-7.97,1.37c-1.46-0.26-2.74-0.92-3.76-2c-0.52-0.54-0.94-1.19-1.17-1.92c-0.42-1.35-0.57-2.71-0.3-4.14
		c0.34-1.78,1-3.45,1.62-5.13c0.53-1.44,1.04-2.89,1.56-4.34c0.55-1.53,1.12-3.06,1.67-4.59c0.45-1.24,0.88-2.49,1.33-3.73
		c0.46-1.25,0.95-2.49,1.4-3.75c0.43-1.21,0.89-2.42,1.31-3.64c0.38-1.09,0.81-2.15,1.18-3.25c0.34-1.03,0.75-2.04,1.12-3.06
		c0.44-1.19,0.89-2.38,1.33-3.57c0.55-1.48,1.11-2.96,1.66-4.44c0.48-1.28,0.94-2.56,1.41-3.85c0.61-1.69,1.18-3.39,1.85-5.06
		c0.44-1.1,0.66-2.24,0.96-3.36c0.22-0.83,0.37-1.64,0.37-2.5c0-0.62-0.11-1.18-0.48-1.7c-0.31-0.44-0.2-0.85,0.28-1.11
		c2.01-1.06,4.15-1.51,6.38-1c1.39,0.32,2.51,1.15,3.24,2.46c0.59,1.07,0.59,2.2,0.46,3.33c-0.23,2.06-0.92,4.01-1.65,5.94
		c-0.42,1.11-0.84,2.21-1.26,3.32c-0.41,1.08-0.85,2.14-1.22,3.23c-0.38,1.12-0.91,2.18-1.24,3.32c-0.15,0.51-0.4,0.99-0.58,1.5
		c-0.55,1.51-1.2,2.99-1.73,4.5c-0.69,1.95-1.47,3.88-2.16,5.83c-0.36,1.04-0.79,2.06-1.2,3.09c-0.56,1.42-1.06,2.85-1.61,4.27
		c-0.44,1.16-0.82,2.34-1.33,3.47c-0.24,0.54-0.42,1.12-0.62,1.68c-0.43,1.2-0.92,2.38-1.35,3.57c-0.63,1.77-1.4,3.49-1.89,5.3
		c-0.31,1.14-0.54,2.31-0.41,3.52c0.24,2.34,1.87,3.01,3.87,2.18c2.11-0.88,3.57-2.54,4.91-4.35c1.29-1.75,2.15-3.71,3.09-5.64
		c1.2-2.46,2.18-5.01,3.23-7.53c0.57-1.35,1.1-2.72,1.65-4.09c0.5-1.24,0.95-2.5,1.31-3.78c0.26-0.94,0.61-1.88,0.57-2.89
		c-0.02-0.49,0.01-0.98-0.21-1.45c-0.27-0.56-0.18-0.87,0.37-1.16c0.45-0.24,0.91-0.48,1.39-0.61c1.13-0.31,2.27-0.63,3.45-0.48
		c2.09,0.26,3.51,1.05,4.29,3.18c0.28,0.77,0.39,1.67,0.23,2.55c-0.17,0.9-0.22,1.82-0.54,2.71c-0.41,1.15-0.9,2.25-1.34,3.38
		c-0.39,1.01-0.8,2.02-1.21,3.03c-0.43,1.05-0.87,2.1-1.29,3.15c-0.53,1.3-1.05,2.59-1.57,3.89c-0.65,1.61-1.33,3.21-1.97,4.82
		c-0.53,1.34-0.82,2.74-0.89,4.18c-0.03,0.57,0.1,1.14,0.3,1.68c0.38,1.05,1.27,1.46,2.41,1.26c1.59-0.28,2.93-1.06,4.22-1.97
		c1.97-1.37,3.46-3.2,4.92-5.06c1.24-1.58,2.25-3.3,3.24-5.03c0.82-1.44,1.57-2.92,2.22-4.44c0.69-1.61,1.44-3.19,2.12-4.81
		c0.59-1.4,1.09-2.83,1.68-4.24c0.65-1.56,0.96-3.21,1.29-4.85c0.07-0.34,0.04-0.68,0.05-1.02c0.02-0.66,0.2-1.25,0.89-1.53
		c1.54-0.63,3.11-1.14,4.8-0.81c1.37,0.27,2.54,0.94,3.21,2.19C229.44-104.15,229.76-103.2,229.63-102.38z M192.26-40.85
		c0.91,0.07,1.74-0.34,2.48-0.86c0.89-0.63,1.68-1.41,2.39-2.26c1.32-1.58,2.41-3.31,3.41-5.09c1.09-1.93,2.06-3.91,2.95-5.94
		c0.52-1.18,1.1-2.33,1.61-3.52c0.61-1.42,1.19-2.87,1.78-4.3c0.04-0.09,0.07-0.17,0.11-0.26c0.07-0.17,0.18-0.39,0.01-0.5
		c-0.16-0.11-0.34,0.07-0.49,0.19c-0.14,0.12-0.28,0.24-0.42,0.36c-1.29,1.09-2.6,2.17-3.86,3.29c-1.05,0.93-2.04,1.92-3.06,2.88
		c-1.76,1.66-3.41,3.43-4.92,5.31c-1.19,1.49-2.27,3.06-3.16,4.76c-0.56,1.07-0.92,2.17-1.01,3.37
		C189.96-41.81,190.71-40.78,192.26-40.85z"/>
	<path class="st3" d="M93.12-58.84c-1.26,0.13-2.91-0.18-4.54-0.5c-1.27-0.25-2.5-0.65-3.7-1.19c-1.63-0.74-3.09-1.68-4.48-2.79
		c-1.02-0.82-1.92-1.75-2.82-2.71c-1.32-1.41-2.48-2.94-3.51-4.55c-1.12-1.75-2.28-3.47-3.19-5.34c-0.5-1.04-1.05-2.05-1.58-3.07
		c-0.74-1.42-1.47-2.83-2.15-4.28c-0.59-1.27-1.12-2.56-1.74-3.82c-0.65-1.33-1.28-2.66-1.86-4.01c-0.37-0.86-0.74-1.72-1.1-2.59
		c-0.2-0.49-0.49-0.63-0.98-0.44c-0.63,0.25-1.3,0.36-1.91,0.68c-0.37,0.2-0.6,0.46-0.74,0.88c-0.44,1.24-0.94,2.47-1.37,3.71
		c-0.64,1.84-1.41,3.64-2.04,5.48c-0.55,1.61-1.18,3.2-1.76,4.8c-0.51,1.42-0.93,2.86-1.18,4.35c-0.08,0.49-0.31,0.94-0.38,1.43
		c-0.19,1.38-0.3,2.76-0.09,4.15c0.07,0.46,0.33,0.82,0.64,1.15c0.56,0.6,0.42,1.27-0.36,1.49c-1.63,0.46-3.26,0.72-4.96,0.29
		c-1.77-0.44-3.16-1.32-4.08-2.9c-0.34-0.59-0.56-1.24-0.71-1.93c-0.33-1.51-0.05-2.98,0.14-4.45c0.09-0.66,0.36-1.3,0.58-1.94
		c0.44-1.28,0.89-2.54,1.35-3.81c0.57-1.57,1.15-3.14,1.72-4.71c0.42-1.17,0.79-2.36,1.25-3.52c0.62-1.57,1.16-3.17,1.74-4.76
		c0.91-2.51,1.78-5.03,2.69-7.54c0.87-2.41,1.79-4.81,2.65-7.22c0.49-1.39,1.01-2.77,1.51-4.16c0.64-1.78,1.28-3.56,1.93-5.33
		c0.41-1.11,0.73-2.25,1.15-3.35c0.58-1.51,1.18-3.02,1.63-4.58c0.32-1.13,0.46-2.31-0.04-3.44c-0.37-0.85-1.07-1.23-1.97-1.3
		c-1.86-0.15-3.6,0.26-5.31,0.98c-1.52,0.64-2.94,1.45-4.3,2.39c-1.26,0.87-2.43,1.82-3.57,2.83c-1.22,1.07-2.34,2.24-3.39,3.48
		c-1,1.18-1.92,2.42-2.8,3.71c-0.89,1.3-1.64,2.68-2.33,4.08c-0.81,1.66-1.43,3.39-1.86,5.2c-0.51,2.18-0.69,4.38-0.51,6.62
		c0.1,1.3,0.31,2.56,1.1,3.66c0.58,0.82,1.24,1.47,2.27,1.66c0.58,0.11,0.69,0.49,0.43,1.02c-0.43,0.87-1.07,1.55-1.95,1.89
		c-1.08,0.43-2.24,0.47-3.34,0.01c-1.72-0.73-2.62-2.15-3.14-3.87c-0.42-1.4-0.31-2.83-0.32-4.27c-0.02-1.7,0.25-3.36,0.61-5
		c0.38-1.76,0.97-3.45,1.63-5.13c0.53-1.35,1.24-2.6,1.84-3.91c0.32-0.7,0.79-1.32,1.18-1.98c0.95-1.58,2.01-3.09,3.17-4.52
		c0.87-1.07,1.79-2.11,2.75-3.12c1.11-1.16,2.29-2.24,3.51-3.27c1.52-1.28,3.14-2.43,4.83-3.47c1.75-1.08,3.58-1.98,5.49-2.71
		c1.29-0.49,2.63-0.8,3.97-1.13c1.82-0.45,3.63-0.5,5.46-0.26c1.78,0.23,3.39,0.92,4.62,2.29c0.85,0.95,1.36,2.05,1.64,3.33
		c0.41,1.9,0.16,3.74-0.21,5.58c-0.14,0.71-0.35,1.42-0.69,2.09c-0.28,0.54-0.36,1.17-0.58,1.74c-0.47,1.27-0.89,2.55-1.34,3.82
		c-0.39,1.1-0.77,2.21-1.19,3.3c-0.79,2.05-1.45,4.14-2.26,6.19c-0.43,1.08-0.77,2.2-1.17,3.3c-0.28,0.78-0.6,1.55-0.88,2.33
		c-0.07,0.2-0.26,0.42-0.04,0.65c0.2,0.21,0.41,0.05,0.61,0.01c1.35-0.3,2.6-0.91,3.91-1.34c2.06-0.67,3.97-1.66,5.91-2.58
		c1.52-0.72,3-1.54,4.46-2.4c1.05-0.62,2.12-1.19,3.15-1.82c0.73-0.45,1.43-0.96,2.13-1.46c0.82-0.57,1.65-1.13,2.48-1.67
		c0.69-0.45,1.3-1.01,1.95-1.51c1.1-0.86,2.23-1.7,3.25-2.65c1.11-1.04,2.21-2.09,3.22-3.23c0.81-0.92,1.58-1.84,2.22-2.88
		c0.46-0.74,0.9-1.5,1.14-2.35c0.22-0.76,1.03-1.02,1.7-0.57c0.93,0.64,1.33,1.56,1.46,2.65c0.24,2.06-0.61,3.76-1.6,5.47
		c-0.91,1.56-2.15,2.85-3.31,4.19c-0.91,1.06-2.02,1.94-3.03,2.91c-0.88,0.84-1.88,1.53-2.8,2.31c-1.27,1.07-2.63,2.02-4,2.96
		c-1.28,0.88-2.57,1.74-3.91,2.53c-1.93,1.14-3.85,2.3-5.88,3.27c-1.22,0.58-2.4,1.24-3.65,1.76c-0.32,0.14-0.32,0.4-0.23,0.66
		c0.21,0.59,0.42,1.19,0.68,1.77c0.8,1.81,1.6,3.62,2.43,5.42c0.94,2.03,1.89,4.07,2.87,6.08c1.09,2.24,2.19,4.48,3.35,6.68
		c0.83,1.56,1.66,3.12,2.67,4.59c0.83,1.21,1.67,2.39,2.64,3.48c0.91,1.02,1.93,1.96,3.07,2.7c1.7,1.11,3.59,1.79,5.6,2.23
		c2.3,0.5,4.55,0.36,6.78-0.16c1.4-0.32,2.78-0.82,3.99-1.65c0.48-0.33,1.02-0.54,1.42-1c0.32-0.37,0.78-0.38,1.09-0.11
		c0.35,0.31,0.25,0.71,0.1,1.07c-0.18,0.43-0.53,0.75-0.84,1.09c-0.92,1.02-1.88,1.98-3.03,2.76c-0.7,0.47-1.42,0.91-2.18,1.29
		C99.35-59.32,96.5-58.81,93.12-58.84z"/>
	<path class="st3" d="M91.71-77.43c-0.04-1.95,0.3-3.64,0.77-5.3c0.26-0.92,0.46-1.85,0.72-2.76c0.27-0.94,0.59-1.88,0.88-2.82
		c0.81-2.57,1.69-5.1,2.61-7.63c0.41-1.13,0.83-2.25,1.23-3.38c0.45-1.28,0.77-2.6,0.91-3.95c0.06-0.6-0.06-1.17-0.26-1.72
		c-0.22-0.62-0.14-0.92,0.45-1.21c1.68-0.83,3.45-1.17,5.33-0.87c1.19,0.19,2.24,0.62,3.12,1.46c0.52,0.5,0.82,1.12,0.94,1.81
		c0.27,1.59-0.14,3.07-0.78,4.52c-0.21,0.49-0.34,1.02-0.52,1.52c-0.71,1.97-1.37,3.95-2.06,5.92c-0.62,1.8-1.24,3.6-1.88,5.4
		c-0.44,1.23-0.95,2.44-1.35,3.68c-0.66,2.05-1.16,4.15-0.7,6.31c0.35,1.64,1.79,2.47,3.48,2.14c1.75-0.34,3.18-1.32,4.46-2.48
		c1.03-0.93,1.98-1.96,2.78-3.13c0.93-1.37,1.85-2.76,2.61-4.23c0.71-1.36,1.42-2.73,1.99-4.15c0.42-1.03,0.8-2.09,1.18-3.15
		c0.37-1.04,0.8-2.06,1.18-3.09c0.39-1.08,0.77-2.17,1.13-3.26c0.35-1.08,0.84-2.12,1.05-3.24c0.2-1.07,0.54-2.13,0.36-3.25
		c-0.03-0.2-0.07-0.39-0.15-0.58c-0.29-0.62-0.2-0.99,0.38-1.32c1.14-0.65,2.36-1.04,3.67-1.14c1.09-0.08,2.15,0,3.16,0.48
		c1.43,0.67,2.25,1.79,2.42,3.35c0.19,1.8-0.21,3.5-0.85,5.18c-0.64,1.67-1.18,3.39-1.78,5.08c-0.7,1.97-1.41,3.93-2.11,5.9
		c-0.72,2.02-1.42,4.05-2.14,6.08c-0.3,0.84-0.68,1.66-0.87,2.53c-0.16,0.74-0.2,1.49-0.06,2.25c0.22,1.24,1.33,1.88,2.46,1.82
		c1.54-0.09,2.87-0.73,4.1-1.62c2.28-1.64,3.97-3.8,5.47-6.13c1.01-1.56,1.83-3.22,2.51-4.96c0.7-1.79,1.5-3.54,2.21-5.32
		c0.46-1.14,0.83-2.31,1.24-3.47c0.26-0.72,0.56-1.43,0.79-2.16c0.35-1.16,0.68-2.33,0.97-3.51c0.27-1.08,0.27-2.17,0.07-3.26
		c-0.08-0.43,0.07-0.69,0.44-0.92c1.06-0.65,2.26-0.84,3.45-1.07c1.27-0.25,2.5-0.08,3.66,0.44c1.69,0.76,2.42,2.56,2.26,4.32
		c-0.11,1.22-0.34,2.4-0.82,3.53c-0.04,0.08-0.05,0.18-0.05,0.27c0,0.11-0.08,0.26,0.08,0.32c0.14,0.05,0.24-0.04,0.31-0.15
		c0.35-0.5,0.79-0.9,1.21-1.33c0.86-0.9,1.72-1.79,2.63-2.64c1.22-1.12,2.53-2.1,3.94-2.96c1.91-1.17,3.97-1.86,6.23-1.62
		c1.58,0.17,3.01,0.76,4.13,1.95c0.46,0.49,0.79,1.07,1,1.7c0.34,1.01,0.45,2.04,0.27,3.1c-0.11,0.67-0.37,1.31-0.62,1.93
		c-0.87,2.14-2.41,3.67-4.45,4.7c-0.98,0.5-2.05,0.72-3.14,0.88c-0.32,0.05-0.68-0.01-0.85-0.34c-0.15-0.31-0.05-0.6,0.11-0.91
		c0.77-1.51,0.74-3.55-0.97-4.44c-0.64-0.33-1.34-0.37-2.03-0.22c-1.26,0.28-2.39,0.85-3.46,1.56c-1.62,1.08-2.99,2.44-4.28,3.86
		c-1.16,1.27-2.15,2.69-2.98,4.2c-0.59,1.08-1.24,2.13-1.76,3.25c-0.8,1.76-1.66,3.48-2.34,5.3c-0.51,1.37-1.15,2.69-1.58,4.08
		c-0.51,1.6-1.38,3.12-1.19,4.89c0.04,0.41-0.21,0.66-0.53,0.86c-0.8,0.48-1.66,0.77-2.59,0.9c-1.1,0.17-2.22,0.22-3.27-0.08
		c-2.16-0.61-3.16-1.71-3.36-4.06c-0.02-0.24-0.01-0.49,0.01-0.74c0.01-0.11,0.03-0.21-0.07-0.29c-0.13-0.11-0.23-0.01-0.33,0.05
		c-0.5,0.31-0.85,0.79-1.35,1.11c-0.77,0.5-1.47,1.12-2.25,1.6c-1.68,1.02-3.44,1.92-5.38,2.32c-1.63,0.34-3.29,0.56-4.94,0.04
		c-1.51-0.47-2.79-1.3-3.66-2.64c-0.62-0.95-0.96-2.02-0.96-3.18c0-0.05,0-0.09,0-0.14c-0.01-0.2,0.04-0.44-0.2-0.52
		c-0.22-0.07-0.38,0.11-0.5,0.26c-0.73,0.88-1.57,1.65-2.44,2.38c-1.2,1-2.48,1.87-3.88,2.55c-2.18,1.06-4.47,1.6-6.93,1.42
		c-1.41-0.1-2.75-0.4-3.98-1.08c-1.03-0.56-1.9-1.33-2.53-2.37C91.99-74.44,91.66-75.99,91.71-77.43z"/>
	<path class="st4" d="M92.35-142.04c-0.3,1.04-0.57,1.97-0.83,2.89c-0.27,0.93-0.56,1.86-0.8,2.8c-0.09,0.34-0.17,0.35-0.44,0.16
		c-1.44-1.04-2.89-2.06-4.34-3.08c-0.07-0.05-0.15-0.09-0.32-0.18c0.4,1.12,0.76,2.14,1.13,3.17c0.48,1.35,0.95,2.7,1.45,4.04
		c0.1,0.27,0.09,0.4-0.22,0.5c-0.79,0.25-1.58,0.53-2.35,0.83c-0.32,0.13-0.41,0.05-0.51-0.25c-1.2-3.38-2.4-6.76-3.61-10.14
		c-0.21-0.59-0.41-1.19-0.64-1.78c-0.1-0.26-0.1-0.39,0.21-0.49c0.81-0.26,1.61-0.54,2.39-0.85c0.3-0.12,0.49-0.02,0.71,0.14
		c1.49,1.1,2.99,2.19,4.47,3.3c0.28,0.21,0.38,0.23,0.49-0.16c0.47-1.79,0.97-3.57,1.45-5.35c0.06-0.24,0.17-0.36,0.41-0.44
		c0.82-0.27,1.63-0.56,2.44-0.87c0.25-0.09,0.34-0.06,0.43,0.2c1.42,4.02,2.85,8.04,4.29,12.05c0.1,0.28,0.01,0.35-0.21,0.42
		c-0.82,0.28-1.64,0.55-2.44,0.86c-0.31,0.12-0.36,0-0.44-0.23c-0.83-2.35-1.67-4.7-2.51-7.05
		C92.5-141.67,92.45-141.79,92.35-142.04z"/>
	<path class="st4" d="M128.24-143.68c1.06,1.51,2.11,3.01,3.18,4.53c-0.38,0.19-0.77,0.09-1.13,0.11c-0.68,0.04-1.36,0.02-2.04,0.05
		c-0.28,0.01-0.44-0.07-0.6-0.31c-0.75-1.17-1.53-2.32-2.28-3.48c-0.16-0.24-0.32-0.37-0.63-0.35c-0.6,0.03-1.21,0.04-1.81,0.02
		c-0.28-0.01-0.33,0.1-0.32,0.35c0.05,1.16,0.07,2.31,0.13,3.47c0.02,0.35-0.05,0.48-0.44,0.48c-0.75,0.01-1.51,0.08-2.26,0.15
		c-0.25,0.02-0.31-0.04-0.31-0.29c-0.06-2.52-0.14-5.03-0.21-7.54c-0.05-1.7-0.1-3.39-0.15-5.09c0-0.16-0.07-0.34,0.21-0.35
		c2.28-0.09,4.56-0.36,6.84-0.25c2.04,0.09,3.96,1.77,4.26,3.59C131.01-146.66,129.85-144.44,128.24-143.68z M123.56-145.89
		c0.65,0,1.3,0.01,1.94,0c0.59-0.02,1.1-0.25,1.57-0.61c0.8-0.63,0.91-2.38-0.48-2.82c-0.25-0.08-0.5-0.16-0.76-0.18
		c-1.05-0.08-2.1,0.05-3.14,0.01c-0.27-0.01-0.26,0.15-0.25,0.33c0.03,0.8,0.05,1.6,0.08,2.41
		C122.55-145.75,122.55-145.75,123.56-145.89z"/>
	<path class="st4" d="M161.42-139.91c-1.4-0.34-2.73-0.67-4.06-1c-0.52-0.13-1.05-0.24-1.57-0.4c-0.27-0.08-0.35,0.02-0.41,0.26
		c-0.14,0.6-0.29,1.2-0.45,1.79c-0.08,0.28,0.01,0.37,0.29,0.43c2.16,0.51,4.32,1.04,6.48,1.55c0.27,0.06,0.35,0.14,0.27,0.42
		c-0.21,0.71-0.4,1.42-0.58,2.14c-0.06,0.23-0.16,0.29-0.39,0.23c-3.22-0.8-6.43-1.59-9.66-2.37c-0.29-0.07-0.29-0.18-0.23-0.41
		c1.03-4.09,2.07-8.19,3.09-12.28c0.07-0.28,0.15-0.36,0.46-0.28c3.12,0.8,6.25,1.58,9.37,2.36c0.24,0.06,0.33,0.13,0.25,0.4
		c-0.2,0.66-0.39,1.33-0.54,2.01c-0.07,0.28-0.17,0.29-0.41,0.22c-2.05-0.52-4.1-1.02-6.14-1.55c-0.34-0.09-0.46-0.03-0.53,0.31
		c-0.08,0.44-0.23,0.86-0.34,1.3c-0.16,0.58-0.15,0.58,0.41,0.73c1.72,0.44,3.43,0.89,5.15,1.32c0.35,0.09,0.43,0.2,0.31,0.56
		c-0.22,0.66-0.36,1.34-0.55,2C161.6-140.05,161.63-139.79,161.42-139.91z"/>
	<path class="st4" d="M139.25-146.31c0.95-0.76,1.79-1.43,2.62-2.11c1.11-0.89,2.18-1.83,3.21-2.8c0.17-0.16,0.33-0.22,0.57-0.19
		c1.04,0.12,2.09,0.21,3.24,0.33c-0.84,0.76-1.6,1.48-2.38,2.16c-1.15,1.01-2.3,2.01-3.47,2.99c-0.26,0.22-0.12,0.35-0.01,0.53
		c1.43,2.39,2.87,4.79,4.3,7.18c0.09,0.14,0.17,0.29,0.3,0.52c-0.95-0.09-1.81-0.23-2.68-0.24c-0.77-0.01-1.15-0.36-1.5-1
		c-0.86-1.57-1.81-3.08-2.71-4.63c-0.16-0.28-0.3-0.36-0.53-0.1c-0.02,0.02-0.05,0.04-0.07,0.06c-1.31,1.05-1.3,1.05-1.47,2.73
		c-0.06,0.6-0.14,1.2-0.21,1.79c-0.03,0.25-0.07,0.41-0.42,0.36c-0.75-0.11-1.5-0.16-2.26-0.21c-0.28-0.02-0.32-0.13-0.29-0.38
		c0.18-1.59,0.34-3.19,0.51-4.79c0.27-2.47,0.54-4.94,0.8-7.41c0.08-0.73,0.06-0.75,0.77-0.69c0.65,0.05,1.29,0.14,1.94,0.18
		c0.31,0.02,0.3,0.18,0.28,0.4c-0.11,1.09-0.22,2.18-0.33,3.27C139.39-147.72,139.33-147.09,139.25-146.31z"/>
	<path class="st4" d="M101.95-136.15c0.22-1.02,0.43-2,0.64-2.97c0.79-3.6,1.59-7.19,2.36-10.79c0.07-0.33,0.21-0.45,0.52-0.5
		c0.72-0.11,1.43-0.24,2.14-0.39c0.24-0.05,0.37,0.03,0.5,0.22c2.59,3.91,5.18,7.82,7.78,11.72c0.15,0.22,0.17,0.34-0.15,0.38
		c-0.87,0.12-1.74,0.24-2.61,0.38c-0.28,0.05-0.44-0.02-0.59-0.28c-0.4-0.69-0.85-1.36-1.26-2.05c-0.13-0.22-0.25-0.28-0.52-0.23
		c-1.59,0.31-3.18,0.6-4.78,0.87c-0.26,0.04-0.36,0.14-0.41,0.39c-0.13,0.77-0.29,1.54-0.44,2.32c-0.05,0.29-0.14,0.46-0.51,0.5
		C103.76-136.47,102.89-136.3,101.95-136.15z M109.7-143c-0.87-1.3-1.7-2.53-2.57-3.84c-0.32,1.54-0.63,2.99-0.94,4.48
		C107.38-142.57,108.51-142.78,109.7-143z"/>
	<path class="st4" d="M180.34-141.77c-0.03,0.08-0.06,0.17-0.1,0.26c-0.28,0.67-0.57,1.33-0.83,2.01c-0.1,0.26-0.19,0.31-0.46,0.21
		c-1.07-0.39-2.16-0.74-3.22-1.15c-0.36-0.14-0.46-0.04-0.59,0.28c-1.13,2.93-2.29,5.85-3.41,8.78c-0.14,0.35-0.27,0.39-0.59,0.26
		c-0.7-0.29-1.4-0.56-2.12-0.79c-0.36-0.11-0.34-0.26-0.22-0.55c1.16-2.99,2.3-5.98,3.46-8.96c0.14-0.36,0.1-0.49-0.28-0.61
		c-1.08-0.36-2.14-0.77-3.22-1.14c-0.24-0.08-0.3-0.17-0.2-0.41c0.29-0.66,0.57-1.33,0.83-2.01c0.11-0.29,0.24-0.32,0.52-0.21
		c3.38,1.28,6.77,2.55,10.16,3.83C180.18-141.95,180.33-141.94,180.34-141.77z"/>
</g>
<g>
	<path class="st5" d="M198.77,16.29c0,6.11-0.09,11.69,0.04,17.26c0.05,2.12-0.42,2.98-2.76,2.95c-5.9-0.09-5.9,0.02-5.9-5.88
		c0-8.46,0.08-16.91-0.06-25.37c-0.03-2.09,0.74-2.24,2.55-2.53c6.42-1.04,10.39,1.17,12.67,7.45c1.49,4.12,4.12,7.82,6.26,11.7
		c0.07,0.12,0.25,0.18,0.49,0.34c0.6-0.66,0.34-1.48,0.34-2.2c0.03-5.07,0.06-10.15-0.01-15.22c-0.02-1.42,0.27-2,1.87-2.03
		c6.9-0.17,6.89-0.23,6.89,6.64c0,8.19-0.07,16.38,0.05,24.57c0.03,2.05-0.69,2.27-2.54,2.57c-6.59,1.1-10.56-1.34-12.9-7.65
		c-1.53-4.11-4.12-7.83-6.24-11.71C199.45,17.02,199.31,16.9,198.77,16.29z"/>
	<path class="st5" d="M13.96,0.01c2.67,0,5.34,0.03,8-0.01c1.41-0.03,2.24,0.37,2.73,1.87c3.6,10.88,7.28,21.73,10.99,32.56
		c0.62,1.8,0.2,2.45-1.69,2.21c-0.79-0.1-1.6-0.02-2.4-0.02c-5.38,0-5.42,0.01-7.12-5.24c-0.42-1.29-1.04-1.77-2.44-1.71
		c-2.84,0.13-5.7,0.16-8.53-0.01c-1.8-0.1-2.38,0.67-2.82,2.24c-1.32,4.73-1.38,4.71-6.21,4.71c-5.15,0-5.14,0-3.51-4.95
		c2.38-7.19,4.65-14.42,7.17-21.56c0.74-2.1,0.46-2.79-1.72-2.45C4.34,8.02,3.91,7.08,3.94,5.15c0.08-5.13-0.01-5.14,5.22-5.14
		C10.76,0.01,12.36,0.01,13.96,0.01z M17.67,8.04c-1.4,4.78-2.57,8.81-3.77,12.82c-0.32,1.08,0.01,1.4,1.1,1.35
		c1.77-0.07,3.56-0.07,5.33,0c1.1,0.04,1.39-0.28,1.07-1.36C20.21,16.85,19.06,12.83,17.67,8.04z"/>
	<path class="st5" d="M168.45,2.37c14.05-0.64,19.76,12.37,16.15,23.72c-2.16,6.78-7.6,10.48-16.06,10.83
		c-6.83,0.29-13.1-1.35-16.65-7.84c-3.64-6.65-3.53-13.54,0.65-19.97C156.03,3.74,161.51,2.25,168.45,2.37z M159.61,20.31
		c0.04,0.42,0.04,1.5,0.26,2.54c0.85,4.11,3.39,6.34,7.27,6.48c4.07,0.15,6.8-1.79,7.88-5.69c0.85-3.07,0.77-6.15-0.42-9.13
		c-1.07-2.68-2.97-4.33-5.97-4.58c-3.38-0.27-6.15,0.61-7.83,3.8C159.83,15.58,159.59,17.6,159.61,20.31z"/>
	<path class="st5" d="M37.94,14.75c0-3.38,0.04-6.76-0.02-10.14c-0.02-1.24,0.36-1.78,1.66-1.73c2.13,0.07,4.27,0.09,6.41-0.01
		c1.47-0.06,1.76,0.6,1.75,1.91c-0.05,5.52,0,11.03-0.04,16.55c-0.01,1.53,0.11,3.04,0.57,4.48c0.8,2.55,2.87,3.97,5.44,3.83
		c2.66-0.14,4.28-1.67,4.94-4.12c0.37-1.35,0.45-2.81,0.46-4.22c0.05-5.34,0.09-10.68-0.02-16.02c-0.04-1.79,0.37-2.62,2.33-2.42
		c2.37,0.24,5.42-0.95,6.97,0.46c1.59,1.45,0.46,4.54,0.52,6.9c0.1,4.45,0.1,8.9,0.01,13.35c-0.14,6.93-3.39,11.13-9.83,12.82
		c-3.86,1.01-7.74,1.01-11.59-0.08c-6.09-1.72-9.26-5.64-9.5-11.95c-0.12-3.2-0.02-6.41-0.02-9.61
		C37.96,14.75,37.95,14.75,37.94,14.75z"/>
	<path class="st5" d="M102.05,10.8c-3.65-1.15-7.09-1.38-10.56-0.85c-4.92,0.75-7.63,4-7.8,9.23c-0.18,5.42,2.36,8.89,7.26,9.96
		c3.19,0.7,6.36,0.5,9.49-0.34c1.13-0.3,1.68-0.21,1.62,1.12c-0.29,6.27,1.63,6.17-5.74,7.01c-5.88,0.67-11.59-0.38-16.47-3.94
		c-9.65-7.04-8.19-23.17,2.53-28.36c5.8-2.8,11.88-3.2,18.16-1.72c1.3,0.31,1.55,0.86,1.53,1.97
		C102.02,6.74,102.05,8.61,102.05,10.8z"/>
	<path class="st5" d="M118.81,2.8c3.65,0,7.3,0.05,10.94-0.03c1.37-0.03,1.81,0.36,1.86,1.8c0.17,5.44,0.23,5.55-5.17,5.38
		c-2.33-0.07-3.17,0.43-3.1,2.98c0.2,7.02,0.02,14.05,0.11,21.08c0.02,1.78-0.36,2.46-2.31,2.47c-7.43,0.04-7.43,0.11-7.43-7.31
		c0-5.69-0.06-11.39,0.03-17.08c0.03-1.62-0.42-2.34-2.09-2.1c-0.44,0.06-0.89,0.01-1.33,0.01c-5.34,0-5.27,0-5.11-5.43
		c0.04-1.45,0.55-1.81,1.87-1.8C110.98,2.83,114.9,2.8,118.81,2.8z"/>
	<path class="st5" d="M135.02,19.53c0-4.8,0.05-9.6-0.03-14.4c-0.03-1.66,0.36-2.34,2.2-2.38c7.43-0.15,7.43-0.21,7.43,7.17
		c0,8-0.06,16.01,0.05,24.01c0.03,2-0.55,2.57-2.55,2.56c-7.1-0.03-7.1,0.04-7.1-7.08C135.02,26.11,135.02,22.82,135.02,19.53z"/>
	<path class="st5" d="M232.33,24.31c3.55,0.02,6.42,2.91,6.37,6.41c-0.05,3.42-3.05,6.41-6.47,6.43c-3.56,0.03-6.51-3.04-6.43-6.69
		C225.88,26.83,228.57,24.29,232.33,24.31z"/>
</g>
<g>
	<path class="st6" d="M715.61-68.12c-2.7-1.8-4.87-3.95-6.55-6.58c-2.32-3.63-3.58-7.6-3.92-11.88c-0.5-6.24,0.93-11.99,4.54-17.12
		c3.35-4.76,8.04-7.67,13.63-9.05c7.81-1.93,15.57-1.78,23.16,1.1c2.29,0.87,4.38,2.12,6.27,3.67c0.41,0.34,0.62,0.34,1-0.04
		c3.86-3.98,8.62-5.71,14.11-5.61c1.07,0.02,1.38,0.27,1.38,1.35c0,3.16-0.05,6.33-0.08,9.49c-0.01,0.84-0.5,1.02-1.22,0.99
		c-2.68-0.1-5.26,0.31-7.66,1.59c-1.13,0.6-1.12,0.59-0.69,1.76c2.98,8.23,2.44,16.18-2.19,23.68c-3.31,5.35-8.32,8.46-14.33,10.05
		c-3.68,0.98-7.45,1.27-11.24,1.2c-2.99-0.06-5.84,0.4-8.45,1.95c-2.15,1.28-3.48,3.16-4.14,5.56c-0.18,0.66-0.01,0.79,0.63,0.78
		c3.64-0.02,7.28-0.01,10.92-0.01c5.78,0,11.57-0.07,17.35,0.03c5.46,0.09,10.29,1.94,14.19,5.85c3.25,3.26,4.91,7.28,5.41,11.83
		c0.6,5.56-0.53,10.72-3.51,15.45c-2.22,3.52-5.28,6.16-8.88,8.23c-1.9,1.09-1.88,1.13-2.93-0.79c-1.54-2.8-3.08-5.59-4.61-8.4
		c-0.57-1.04-0.49-1.32,0.54-1.89c2.38-1.32,4.39-3.02,5.79-5.38c2-3.37,1.82-7.46-0.49-10.4c-1.58-2.01-3.75-2.86-6.25-2.87
		c-10.07-0.02-20.14-0.01-30.21-0.01c-3.43,0-6.87,0-10.3,0c-1.08,0-1.37-0.27-1.35-1.34c0.04-3.25-0.16-6.5,0.46-9.72
		c1.08-5.65,4.09-9.94,8.93-13C715.12-67.79,715.31-67.92,715.61-68.12z M719.22-87.62c0.2,3.67,2.1,7.63,6.5,10.07
		c2.9,1.61,6.08,1.93,9.37,1.64c7.92-0.7,13.2-7.12,11.97-14.9c-0.73-4.61-3.24-8.05-7.69-9.83c-2.57-1.03-5.26-1.22-8.02-1.01
		C724.36-101.15,719.24-95.78,719.22-87.62z"/>
	<path class="st7" d="M523.39-106.9c2.92-2.8,6.08-4.79,9.74-5.88c6.12-1.83,12.25-1.68,18.23,0.51c7.67,2.82,12,8.66,14.11,16.33
		c0.77,2.81,1.11,5.68,1.1,8.6c-0.02,6.42,0.03,12.84-0.02,19.25c-0.04,4.96-1.14,9.7-3.55,14.07c-3.69,6.68-9.47,10.36-16.95,11.47
		c-5.39,0.8-10.65,0.36-15.66-1.93c-2.17-0.99-4.13-2.3-6.1-3.97c0,0.47,0,0.77,0,1.07c0,10.34,0,20.69,0,31.03
		c0,1.34-0.17,1.51-1.52,1.51c-3.73,0-7.46,0-11.18,0c-1.22,0-1.42-0.2-1.42-1.43c0-31.68,0-63.35,0-95.03c0-1.18,0.21-1.4,1.36-1.4
		c3.49,0,6.99,0,10.48,0c1.16,0,1.39,0.23,1.39,1.38C523.39-109.92,523.39-108.53,523.39-106.9z M524.3-78.16
		c0,3.4-0.1,6.8,0.02,10.2c0.18,4.77,2,8.77,6.15,11.42c2.61,1.67,5.55,2.11,8.6,2.02c7.71-0.21,13.25-5.78,13.3-13.49
		c0.05-6.71,0.13-13.42-0.03-20.13c-0.12-5.41-2.34-9.83-7.46-12.19c-4.18-1.93-8.59-1.94-12.82-0.12
		c-5.26,2.28-7.48,6.7-7.75,12.18C524.16-84.9,524.3-81.53,524.3-78.16z"/>
	<path class="st8" d="M615.63-47.77c-2.42,1.8-4.82,3.21-7.49,4.07c-7.09,2.29-14.14,2.05-20.96-0.91
		c-6.74-2.93-10.66-8.34-12.42-15.34c-2.03-8.07-0.84-15.66,3.99-22.51c3.02-4.29,7.28-6.91,12.36-8.16
		c6.35-1.56,12.61-1.43,18.72,1.14c1.84,0.77,3.55,1.8,5.2,2.95c0.77-6.18-1.29-12.6-8.49-14.73c-3.43-1.02-6.91-0.84-10.38-0.29
		c-4.42,0.7-8.67,2-12.71,3.95c-0.86,0.41-1.27,0.23-1.6-0.69c-1.12-3.14-2.21-6.29-3.34-9.43c-0.28-0.76-0.08-1.22,0.67-1.52
		c7.47-2.99,15.15-4.97,23.25-4.87c6.44,0.08,12.35,1.76,17.27,6.11c4.46,3.94,6.94,8.98,8.14,14.72c0.42,1.99,0.54,4,0.54,6.03
		c-0.01,14.04-0.01,28.08-0.01,42.11c0,1.48-0.13,1.6-1.61,1.6c-3.26,0-6.52,0-9.78,0c-1.17,0-1.34-0.17-1.35-1.32
		C615.63-45.75,615.63-46.65,615.63-47.77z M615.23-67.17c0-5.36-2.92-9.98-7.54-11.86c-2.66-1.08-5.44-1.28-8.29-0.99
		c-5.38,0.54-9.47,3.91-10.97,9.11c-1.5,5.21,0.31,11.07,4.43,14.13c3.21,2.39,6.9,2.91,10.78,2.5
		C610.62-55.03,615.23-60.16,615.23-67.17z"/>
	<path class="st9" d="M377.36-78.11c0-3.81-0.21-7.63,0.04-11.43c0.78-11.83,7.81-21.62,21.29-23.88
		c6.31-1.06,12.59-0.87,18.66,1.32c8.68,3.14,13.68,9.5,15.66,18.37c0.51,2.27,0.69,4.57,0.68,6.89c-0.01,6.1,0.04,12.19-0.02,18.29
		c-0.05,5.06-1.21,9.86-3.81,14.25c-3.3,5.57-8.19,9.11-14.39,10.79c-7.04,1.91-14.13,1.91-21.08-0.34
		c-8.86-2.87-14.16-9.1-16.33-18.07c-0.55-2.29-0.79-4.61-0.78-6.97c0.01-3.08,0-6.15,0-9.23
		C377.31-78.11,377.33-78.11,377.36-78.11z M419.49-78.14c0-3.31,0-6.62,0-9.93c0-0.85-0.04-1.7-0.21-2.53
		c-0.98-4.63-3.33-8.21-7.86-10.07c-2.41-0.99-4.94-1.14-7.52-0.99c-6.98,0.43-12.36,5.93-12.44,12.94
		c-0.08,7.03-0.2,14.07,0.04,21.09c0.18,5.34,2.63,9.57,7.7,11.84c3.14,1.41,6.49,1.54,9.83,0.85c6.17-1.27,10.35-6.44,10.44-12.83
		C419.53-71.23,419.49-74.69,419.49-78.14z"/>
	<path class="st9" d="M486.18-49.27c-3.31,3.16-6.94,5.32-11.18,6.25c-7.68,1.68-15.08,1.03-21.76-3.48
		c-5.03-3.4-7.78-8.39-9.27-14.15c-0.71-2.73-1.02-5.52-1.02-8.35c0-14.01,0-28.02,0-42.02c0-1.54,0.15-1.68,1.72-1.68
		c3.58,0,7.16,0,10.74,0c1.67,0,1.76,0.08,1.76,1.71c0,14.27-0.07,28.54,0.04,42.82c0.04,5.34,2.21,9.76,7.21,12.17
		c4.54,2.19,9.32,2.18,13.84-0.11c4.77-2.42,6.82-6.7,6.93-11.88c0.13-6.21,0.05-12.43,0.06-18.64c0.02-8.15,0.03-16.29,0.05-24.44
		c0-1.53,0.1-1.62,1.67-1.62c3.67,0,7.34,0,11.01,0c1.24,0,1.46,0.21,1.46,1.4c0,22.13,0,44.25,0,66.38c0,1.21-0.21,1.42-1.44,1.42
		c-3.46,0-6.93,0-10.39,0c-1.21,0-1.41-0.21-1.41-1.45C486.17-46.31,486.18-47.68,486.18-49.27z"/>
	<path class="st10" d="M652.65-107.04c1.67-1.55,3.31-2.81,5.12-3.83c3.82-2.14,7.94-3.1,12.3-3.13c5.17-0.04,10.11,0.88,14.54,3.68
		c5.48,3.46,8.57,8.6,10.14,14.75c0.7,2.74,1.01,5.53,1.01,8.35c0,14.01,0,28.02,0,42.03c0,1.53-0.14,1.67-1.64,1.67
		c-3.7,0-7.4,0-11.1,0c-1.32,0-1.47-0.15-1.47-1.46c0-14.39,0.06-28.78-0.03-43.17c-0.03-5.03-2.08-9.16-6.57-11.79
		c-4.52-2.65-12.76-2.56-17.09,1.59c-2.76,2.64-4.29,5.9-4.3,9.69c-0.06,14.51-0.03,29.02-0.03,43.52c0,1.48-0.14,1.63-1.59,1.63
		c-3.7,0-7.4,0-11.1,0c-1.28,0-1.45-0.16-1.45-1.4c0-22.13,0-44.26,0-66.39c0-1.18,0.21-1.39,1.38-1.39c3.49,0,6.99,0,10.48,0
		c1.13,0,1.39,0.26,1.39,1.4C652.66-109.95,652.65-108.6,652.65-107.04z"/>
	<path class="st9" d="M319.58-78.07c0-3.49-0.13-6.98,0.03-10.46c0.38-8.3,3.34-15.39,10.26-20.44c3.83-2.8,8.23-4.19,12.89-4.72
		c5.62-0.64,11.19-0.37,16.59,1.5c5.87,2.03,10.36,5.72,13.31,11.22c0.66,1.23,0.56,1.48-0.67,2.12c-3.25,1.69-6.49,3.38-9.74,5.06
		c-1.05,0.54-1.43,0.43-1.95-0.63c-2.26-4.58-6.05-6.83-11.05-7.23c-2.82-0.22-5.59,0.03-8.15,1.3c-4.94,2.46-7.19,6.72-7.33,12.02
		c-0.18,6.8-0.12,13.6-0.02,20.4c0.09,5.66,3.53,12.74,12.73,13.3c2.1,0.13,4.17-0.01,6.18-0.63c3.46-1.06,5.98-3.25,7.6-6.48
		c0.52-1.04,0.83-1.14,1.87-0.62c3.35,1.67,6.7,3.35,10.05,5.03c1.06,0.53,1.17,0.81,0.63,1.84c-3.2,6.18-8.26,10.12-14.91,11.95
		c-7.42,2.05-14.88,2-22.16-0.62c-8.19-2.95-13.11-8.94-15.27-17.27c-0.63-2.45-0.92-4.94-0.9-7.48
		C319.59-71.97,319.57-75.02,319.58-78.07C319.58-78.07,319.58-78.07,319.58-78.07z"/>
</g>
<g>
	<path class="st11" d="M732.31,108.3c-2.62,3.94-5.24,7.88-7.86,11.83c-5,7.53-9.99,15.07-14.98,22.61
		c-0.74,1.11-0.84,1.11-1.61-0.04c-7.37-11.12-14.75-22.24-22.12-33.36c-0.15-0.23-0.32-0.45-0.67-0.95c0,0.69,0,1.1,0,1.5
		c0,17.05-0.01,34.09,0.03,51.14c0,1.04-0.22,1.31-1.29,1.3c-5.24-0.06-10.47-0.05-15.71-0.01c-0.83,0.01-1.15-0.11-1.15-1.07
		c0.03-27.07,0.03-54.14,0.01-81.2c0-0.9,0.23-1.14,1.13-1.13c5.88,0.04,11.75,0.04,17.63,0c0.86-0.01,1.33,0.24,1.79,0.99
		c6.9,11.09,13.85,22.15,20.78,33.21c0.19,0.3,0.39,0.59,0.65,0.98c2.21-3.52,4.39-6.97,6.55-10.43c4.96-7.93,9.93-15.85,14.86-23.8
		c0.42-0.68,0.86-0.96,1.69-0.96c5.92,0.04,11.83,0.04,17.75,0c0.88-0.01,1.14,0.2,1.14,1.12c-0.03,27.07-0.03,54.14,0,81.2
		c0,0.94-0.29,1.09-1.14,1.09c-5.4-0.04-10.79-0.05-16.19,0.01c-0.95,0.01-1.08-0.29-1.08-1.14c0.02-17.17,0.02-34.33,0.02-51.5
		c0-0.43,0-0.87,0-1.3C732.45,108.35,732.38,108.33,732.31,108.3z"/>
	<path class="st11" d="M569.17,121.08c0-21.04,14-38.26,34.42-42.44c14.02-2.87,27.08-0.55,38.57,8.25
		c8.65,6.62,13.84,15.49,15.57,26.26c2.05,12.81-0.78,24.45-8.99,34.59c-6.49,8.01-14.97,12.91-25.03,14.96
		c-10.58,2.15-20.91,1.22-30.67-3.56c-12.12-5.93-19.71-15.58-22.85-28.69C569.42,127.27,569.08,124.01,569.17,121.08z
		 M613.91,146.72c4.38,0,8.11-0.87,11.63-2.7c10.04-5.21,14.88-16.36,13.15-27.68c-1.84-12.02-10.99-20.68-22.4-21.73
		c-7.31-0.68-13.91,1.12-19.35,6.11c-7.11,6.53-9.41,14.83-8.08,24.22C590.65,137.5,601.15,146.97,613.91,146.72z"/>
	<path class="st11" d="M448.65,132.56c0,5.59-0.02,11.18,0.02,16.77c0.01,0.88-0.24,1.44-0.94,2c-7.81,6.26-16.59,10.38-26.53,11.78
		c-12.71,1.78-24.76,0.04-35.46-7.57c-9.24-6.57-14.52-15.66-16.39-26.77c-1.65-9.79-0.51-19.24,4.14-28.08
		c6.39-12.13,16.48-19.59,29.89-22.22c10.67-2.09,21.2-1.17,31.26,3.28c3.82,1.69,7.22,4.04,10.44,6.68
		c0.54,0.44,0.53,0.66,0.1,1.18c-3.47,4.12-6.92,8.26-10.34,12.42c-0.58,0.71-0.92,0.89-1.74,0.2c-4.57-3.81-9.67-6.44-15.66-7.42
		c-15.71-2.58-26.54,7.98-28.84,20.19c-1.58,8.36-0.15,16.21,5.27,23c4.56,5.72,10.68,8.57,17.93,8.94
		c6.09,0.31,11.9-0.73,17.27-3.8c1.24-0.71,1.8-1.47,1.73-2.97c-0.15-2.99-0.08-5.99-0.02-8.98c0.02-0.84-0.21-1.06-1.05-1.05
		c-5.48,0.04-10.95,0-16.43,0.04c-0.9,0.01-1.12-0.21-1.11-1.11c0.05-4.59,0.04-9.18,0.01-13.77c-0.01-0.76,0.16-1.01,0.97-1
		c11.51,0.03,23.02,0.03,34.53,0c0.83,0,0.96,0.28,0.96,1.02C448.64,121.06,448.65,126.81,448.65,132.56z"/>
	<path class="st11" d="M256.52,163.5c-12.7-0.17-24.09-4.06-34-12.08c-0.31-0.25-0.59-0.55-0.92-0.77
		c-0.54-0.36-0.47-0.67-0.07-1.13c3.28-3.87,6.53-7.75,9.77-11.64c0.49-0.58,0.77-0.71,1.46-0.16c4.89,3.93,10.19,7.12,16.37,8.57
		c4.87,1.15,9.79,1.56,14.64-0.1c4.22-1.44,6.18-4.98,5.11-8.96c-0.5-1.87-1.82-3.05-3.4-3.98c-2.91-1.71-6.11-2.66-9.33-3.56
		c-5.59-1.57-11.28-2.79-16.67-5.03c-3.26-1.35-6.35-2.98-8.95-5.4c-3.62-3.36-5.41-7.61-5.91-12.44
		c-0.74-7.17,0.48-13.82,5.32-19.46c4.02-4.69,9.22-7.53,15.19-8.64c14.38-2.69,27.52,0.37,39.27,9.16c0.47,0.35,0.58,0.58,0.2,1.12
		c-2.94,4.17-5.86,8.35-8.72,12.57c-0.48,0.71-0.79,0.49-1.3,0.14c-4.51-3.04-9.27-5.58-14.6-6.88c-3.84-0.94-7.72-1.3-11.58-0.09
		c-2.67,0.84-4.82,2.33-5.45,5.29c-0.67,3.17,0.39,5.65,3.15,7.36c2.67,1.66,5.67,2.5,8.65,3.36c5.19,1.5,10.5,2.61,15.56,4.58
		c3.5,1.36,6.87,2.99,9.8,5.37c4.6,3.73,6.89,8.61,7.29,14.47c0.46,6.71-0.82,12.93-5.15,18.26c-3.84,4.74-9.01,7.36-14.83,8.83
		C263.86,163.16,260.21,163.52,256.52,163.5z"/>
	<path class="st11" d="M330.29,163.5c-13.01-0.18-24.61-4.21-34.67-12.55c-0.74-0.62-0.84-0.95-0.17-1.72
		c3.18-3.68,6.34-7.39,9.4-11.18c0.76-0.94,1.15-0.72,1.91-0.12c4.55,3.64,9.48,6.61,15.16,8.11c5.16,1.37,10.38,1.87,15.56,0.14
		c4.25-1.42,6.23-5.11,5.05-9.09c-0.38-1.27-1.13-2.27-2.19-3.05c-2.91-2.14-6.32-3.13-9.72-4.13c-5.22-1.54-10.57-2.64-15.68-4.56
		c-3.4-1.28-6.68-2.8-9.54-5.09c-4.52-3.6-6.65-8.41-7.15-14.06c-0.63-7.07,0.76-13.56,5.56-19.04c4.04-4.62,9.21-7.39,15.15-8.48
		c14.21-2.62,27.2,0.39,38.87,8.96c0.75,0.55,0.78,0.94,0.25,1.68c-2.81,3.97-5.59,7.95-8.33,11.97c-0.52,0.76-0.84,0.86-1.63,0.33
		c-4.73-3.23-9.77-5.84-15.43-7.04c-3.8-0.81-7.6-1.01-11.32,0.38c-4.01,1.5-5.76,5-4.55,8.87c0.57,1.8,1.85,2.93,3.42,3.8
		c3.13,1.73,6.55,2.65,9.97,3.58c5.64,1.52,11.34,2.85,16.68,5.31c4.06,1.87,7.79,4.2,10.49,7.88c3.23,4.4,4.05,9.44,3.78,14.73
		c-0.34,6.92-2.87,12.85-8.27,17.37c-4.04,3.39-8.8,5.23-13.92,6.21C336.13,163.28,333.22,163.53,330.29,163.5z"/>
	<path class="st11" d="M488.63,120.68c-0.13-18.53,10.62-34.19,27.63-40.41c7.3-2.67,14.82-3.2,22.5-2.42
		c7.05,0.72,13.62,2.79,19.55,6.74c2.33,1.56,4.44,3.38,6.53,5.23c0.53,0.47,0.42,0.76,0,1.23c-3.57,4.04-7.12,8.09-10.64,12.17
		c-0.48,0.56-0.7,0.62-1.27,0.11c-2.99-2.65-6.19-5.04-9.92-6.57c-9.28-3.79-18.1-3.23-26.08,3.22c-4.74,3.83-7.49,8.98-8.57,14.92
		c-1.49,8.25-0.1,15.98,5.11,22.72c5.13,6.66,12.08,9.46,20.43,9.1c6.76-0.29,12.44-3.08,17.52-7.34c0.76-0.64,1.53-1.29,2.26-1.97
		c0.37-0.34,0.6-0.35,0.97,0.02c3.6,3.64,7.2,7.26,10.83,10.87c0.4,0.4,0.41,0.62,0.01,1.05c-6.27,6.67-13.64,11.49-22.74,13.29
		c-9.25,1.83-18.47,1.71-27.31-1.86c-14.88-6.01-23.58-17.1-26.38-32.85c-0.19-1.06-0.36-2.13-0.42-3.2
		C488.57,123.39,488.63,122.03,488.63,120.68z"/>
	<path class="st11" d="M483.6,152.79c-0.01,5.76-4.66,10.33-10.49,10.3c-5.74-0.03-10.37-4.63-10.37-10.32
		c0-5.72,4.68-10.38,10.45-10.39C478.93,142.37,483.61,147.05,483.6,152.79z"/>
</g>
</svg>
